<svg width="130" height="24" viewBox="0 0 130 24" fill="none" xmlns="http://www.w3.org/2000/svg">
<path d="M0.976562 7.22266H2.00781L3.91797 13.2578C3.98047 13.4609 4.07031 13.7578 4.1875 14.1484C4.30469 14.5312 4.39844 14.8398 4.46875 15.0742H4.51562C4.58594 14.832 4.67969 14.5234 4.79688 14.1484C4.91406 13.7656 5.00391 13.4688 5.06641 13.2578L7 7.22266H8.03125L5.07812 16H3.92969L0.976562 7.22266ZM11.6148 16V7.22266H12.5523V16H11.6148ZM17.3781 16V7.22266H22.8625V8.01953H18.3156V11.0664H22.4172V11.8516H18.3156V15.2031H22.9563V16H17.3781ZM25.9539 7.22266H26.9852L28.2273 13.1523C28.3758 13.9883 28.4773 14.5859 28.532 14.9453H28.6023C28.7977 14.0078 28.9227 13.4102 28.9773 13.1523L30.3953 7.22266H31.4031L32.8445 13.1523C32.9539 13.6445 33.0789 14.2422 33.2195 14.9453H33.2664C33.2742 14.8672 33.3797 14.2695 33.5828 13.1523L34.8367 7.22266H35.868L33.8055 16H32.7039L31.2859 10.1406C31.075 9.11719 30.9578 8.54297 30.9344 8.41797H30.8875C30.8484 8.62891 30.782 8.94141 30.6883 9.35547C30.5945 9.76953 30.5359 10.0312 30.5125 10.1406L29.118 16H28.0164L25.9539 7.22266ZM44.9336 16V7.22266H46.1523L48.0742 11.9453C48.1992 12.2734 48.3672 12.7227 48.5781 13.293C48.7969 13.8555 48.9102 14.1484 48.918 14.1719H48.9648C49.0117 14.0547 49.2969 13.3125 49.8203 11.9453L51.7305 7.22266H52.9727V16H52.0352V11.043C52.0352 10.4102 52.0742 9.52344 52.1523 8.38281H52.1055L51.6602 9.55469L49.3633 15.3438H48.543L46.2461 9.55469L45.7773 8.38281H45.7305C45.8242 9.64062 45.8711 10.5273 45.8711 11.043V16H44.9336ZM57.1891 11.6172C57.1891 10.2422 57.5211 9.13281 58.1852 8.28906C58.8492 7.4375 59.7359 7.01172 60.8453 7.01172C61.9625 7.01172 62.8453 7.43359 63.4938 8.27734C64.15 9.12109 64.4781 10.2383 64.4781 11.6289C64.4781 13.0352 64.1461 14.1523 63.482 14.9805C62.8258 15.8008 61.9469 16.2109 60.8453 16.2109C59.7359 16.2109 58.8492 15.7969 58.1852 14.9688C57.5211 14.1328 57.1891 13.0156 57.1891 11.6172ZM58.15 11.6172C58.15 12.7734 58.3922 13.6953 58.8766 14.3828C59.3609 15.0625 60.0172 15.4023 60.8453 15.4023C61.6578 15.4023 62.3063 15.0664 62.7906 14.3945C63.275 13.7227 63.5172 12.8008 63.5172 11.6289C63.5172 10.4727 63.2828 9.54688 62.8141 8.85156C62.3453 8.15625 61.6891 7.80859 60.8453 7.80859C60.0172 7.80859 59.3609 8.15234 58.8766 8.83984C58.3922 9.52734 58.15 10.4531 58.15 11.6172ZM69.6438 11.4062H72.0109C72.5969 11.4062 73.0461 11.25 73.3586 10.9375C73.6789 10.625 73.8391 10.2109 73.8391 9.69531C73.8391 9.19531 73.6711 8.79297 73.3352 8.48828C73.007 8.17578 72.5344 8.01953 71.9172 8.01953H69.6438V11.4062ZM68.7063 16V7.22266H72.1281C72.9875 7.22266 73.6477 7.45703 74.1086 7.92578C74.5695 8.38672 74.8 8.95703 74.8 9.63672C74.8 10.2539 74.6438 10.7539 74.3313 11.1367C74.0188 11.5195 73.675 11.7617 73.3 11.8633C73.6281 12.0352 73.8664 12.2461 74.0148 12.4961C74.1633 12.7461 74.2844 13.0938 74.3781 13.5391C74.4797 13.9766 74.55 14.2773 74.5891 14.4414C74.6359 14.5977 74.7141 14.8242 74.8234 15.1211C74.9406 15.418 75.0813 15.7109 75.2453 16H74.1906C74.0578 15.75 73.9367 15.4844 73.8273 15.2031C73.7258 14.9141 73.6516 14.6797 73.6047 14.5C73.5578 14.3125 73.4875 14.0156 73.3938 13.6094C73.2922 13.1719 73.1359 12.8281 72.925 12.5781C72.7219 12.3281 72.3938 12.2031 71.9406 12.2031H69.6438V16H68.7063ZM79.0281 16V7.22266H84.5125V8.01953H79.9656V11.0664H84.0672V11.8516H79.9656V15.2031H84.6062V16H79.0281Z" fill="white"/>
<path fill-rule="evenodd" clip-rule="evenodd" d="M109 11.5C109 11.2239 109.224 11 109.5 11L125.5 11C125.776 11 126 11.2239 126 11.5C126 11.7761 125.776 12 125.5 12L109.5 12C109.224 12 109 11.7761 109 11.5Z" fill="white"/>
<path fill-rule="evenodd" clip-rule="evenodd" d="M121.646 7.64645C121.842 7.45118 122.158 7.45118 122.354 7.64645L126.207 11.5L122.354 15.3536C122.158 15.5488 121.842 15.5488 121.646 15.3536C121.451 15.1583 121.451 14.8417 121.646 14.6464L124.793 11.5L121.646 8.35355C121.451 8.15829 121.451 7.84171 121.646 7.64645Z" fill="white"/>
</svg>
